<?xml version="1.0" encoding="utf-8"?>
<!-- Generator: Adobe Illustrator 24.3.0, SVG Export Plug-In . SVG Version: 6.00 Build 0)  -->
<svg version="1.1" id="Layer_1" xmlns="http://www.w3.org/2000/svg" xmlns:xlink="http://www.w3.org/1999/xlink" x="0px" y="0px"
	 viewBox="0 0 841.9 244" style="enable-background:new 0 0 841.9 244;" xml:space="preserve">
<style type="text/css">
	.st0{fill:#F5822C;}
	.st1{fill:#522888;}
</style>
<path class="st0" d="M286.8,153.5h-12.5c-2.6,0-4.3-1.2-5.3-3.6l-18.2-47.1h-6.8v45.1c0,3.9-1.9,5.7-5.7,5.7h-11.6
	c-3.7,0-5.7-1.9-5.7-5.7V34.6c0-3.9,1.9-5.7,5.7-5.7h40.5c6.1,0,11.5,2.3,16.1,7s7.1,10.1,7.1,16.1v27.5c0,4.9-1.5,9.3-4.5,13.3
	s-6.7,6.7-11.1,8.4l17.3,44.5c0.8,1.9,0.5,3.7-0.5,5.3C290.3,152.7,288.7,153.5,286.8,153.5z M267.3,79.7V51.9h-23.4v27.8H267.3z
	 M350.3,153.5h-25.4c-6.2,0-11.5-2.3-16.1-6.8c-4.6-4.5-7-9.9-7-16.1V34.6c0-3.9,1.9-5.7,5.7-5.7h11.6c3.9,0,5.7,1.9,5.7,5.7v95.9
	h25.8V34.6c0-3.9,1.9-5.7,5.7-5.7h11.6c3.9,0,5.7,1.9,5.7,5.7v95.9c0,6.2-2.3,11.6-7.1,16.1C361.8,151.3,356.4,153.5,350.3,153.5z
	 M431.5,149.9l-23.8-61.7v59.7c0,3.9-1.9,5.7-5.7,5.7h-11.5c-3.9,0-5.7-1.9-5.7-5.7V34.6c0-3.9,1.9-5.7,5.7-5.7h15.1
	c2.6,0,4.3,1.2,5.3,3.6l23.8,61.7V34.6c0-3.9,1.9-5.7,5.7-5.7h11.5c3.9,0,5.7,1.9,5.7,5.7v113.2c0,3.7-1.9,5.7-5.7,5.7l-15.1,0.1
	C434.4,153.5,432.6,152.4,431.5,149.9z M605.1,37.1l-26.7,54.1l26.7,54.1c0.9,1.8,0.8,3.7-0.3,5.6c-1.2,1.8-2.7,2.7-4.9,2.7H587
	c-2.5,0-4.3-1-5.2-3.2l-23.2-47.5v45.1c0,3.9-1.9,5.7-5.7,5.7h-11.6c-3.7,0-5.7-1.9-5.7-5.7V34.6c0-3.9,1.9-5.7,5.7-5.7h11.6
	c3.7,0,5.7,1.9,5.7,5.7v45.1l23.2-47.5c1-2.2,2.8-3.2,5.2-3.2h12.9c2.1,0,3.6,0.9,4.9,2.7C606,33.4,606,35.2,605.1,37.1z
	 M635.2,153.5h-11.6c-3.9,0-5.7-1.9-5.7-5.7V34.6c0-3.9,1.9-5.7,5.7-5.7h11.6c3.7,0,5.7,1.9,5.7,5.7V148
	C640.8,151.7,638.9,153.5,635.2,153.5z M724.8,37.1L698,91.2l26.7,54.1c0.9,1.8,0.8,3.7-0.3,5.6c-1.2,1.8-2.7,2.7-4.8,2.7h-12.9
	c-2.5,0-4.3-1-5.2-3.2l-23.2-47.5v45.1c0,3.9-1.9,5.7-5.7,5.7h-11.6c-3.7,0-5.7-1.9-5.7-5.7V34.6c0-3.9,1.9-5.7,5.7-5.7h11.6
	c3.9,0,5.7,1.9,5.7,5.7v45.1l23.2-47.5c1-2.2,2.8-3.2,5.2-3.2h12.9c2.1,0,3.6,0.9,4.8,2.7C725.5,33.4,725.7,35.2,724.8,37.1z
	 M811.2,146.7L788.6,33.3c-0.6-3.1-2.5-4.6-5.7-4.6h-23c-3.1,0-5,1.5-5.6,4.6l-22.7,113.4c-0.4,1.8,0,3.5,1.2,4.8
	c1.2,1.4,2.6,2.1,4.4,2.1H749c3.1,0,5-1.5,5.7-4.6l4.6-23.2h24.1l4.6,23.2c0.5,3.1,2.5,4.6,5.7,4.6h11.9c1.8,0,3.2-0.6,4.4-2.1
	C811,150.2,811.4,148.6,811.2,146.7L811.2,146.7z M763.9,102.8l7.5-37.3l7.5,37.3H763.9z M476.7,147.8h17.8v-24.8h4.8v24.8h23.4v5.7
	h-50.9v-31.1h4.8v25.4L476.7,147.8L476.7,147.8z M471.4,97c0-9.6,1.4-15.6,4.3-18.1c2.8-2.5,9.8-3.6,21-3.6
	c12.1,0,19.5,1.2,22.3,3.5s4.3,8.4,4.3,18.2s-1.4,15.8-4.3,18.2c-2.8,2.3-10.1,3.5-21.7,3.5h-3.6l-4.8-0.1c-6.7,0-11.4-1.6-13.8-4.5
	C472.6,110.9,471.4,105.2,471.4,97L471.4,97z M476.2,97c0,8,0.9,12.8,2.7,14.1c1.8,1.4,7.9,2.1,18.3,2.1s16.7-0.6,18.5-2.1
	c1.8-1.4,2.7-6.1,2.7-14.1c0-8-0.9-12.8-2.7-14.2s-7.9-2.1-18.5-2.1h-8.1c-5.6,0-9.2,0.9-10.7,2.8C477,85.6,476.2,90,476.2,97
	L476.2,97z M522.7,68h-50.9V43.8c0-5.4,1-9.3,3.2-11.5s5.9-3.4,11.2-3.4c4.6,0,8,0.6,9.8,1.8s3.1,3.5,3.6,7h0.1
	c0.4-5.4,3.6-8.1,9.8-8.1h13v5.7h-11.8c-5.9,0-8.9,2.6-8.9,7.7v19.2h20.5V68L522.7,68L522.7,68z M497.4,62.2V45.7
	c0-4.4-0.6-7.4-1.9-8.9c-1.3-1.6-3.9-2.3-7.5-2.3c-4.6,0-7.6,0.6-9,1.8c-1.4,1.2-2.1,3.7-2.1,7.6v18.6h20.5L497.4,62.2L497.4,62.2z"
	/>
<g>
	<path class="st1" d="M133.3,154.7c-8.4-13,3.1-35.6,20.7-56c17.7-20.3,15-40.3,15-40.3c-2.7,17.3-40.3,44.2-82.9,46
		c-42.6,1.9-55.3,44.8-55.3,44.8s13.8-26.1,31.9-23s23.8,14.2,6.2,42.6C51.1,197.2,11,218.2,11,218.2c40.7,0,72.1-27.2,115.1-25.3
		c43,1.9,45.2,38.4,45.2,38.4C178.6,195,141.8,167.7,133.3,154.7L133.3,154.7z"/>
	<circle class="st1" cx="116.9" cy="74.1" r="16.1"/>
	<path class="st0" d="M45.8,30.7c16.4,11.6,41.1,12.8,59,5c23.4-10.1,46-9.3,64.3,19.8c0,0-5.4-40.9-42.7-44.2
		C91.7,8.3,75,29.2,54.5,23.1C34.1,17,27.2,5.9,27.2,5.9S32.5,21.3,45.8,30.7z"/>
</g>
<g>
	<path class="st1" d="M222.1,171.6h10.2l18.2,44.5l18.3-44.5H279v52.2h-5.9v-48l-19.6,48h-5.9l-19.6-48v48h-5.8V171.6z M312.6,223.8
		l19-52.2h8.3l19,52.2h-6.1l-4-11.1h-26l-4.1,11.1L312.6,223.8L312.6,223.8z M324.5,207.4h22.6l-11.2-30.9L324.5,207.4L324.5,207.4z
		 M392.3,223.8v-52.2h24.4c5.8,0,9.9,1.2,12.3,3.5s3.5,6.2,3.5,12c0,4.6-0.8,8-2.2,9.9c-1.4,1.9-3.9,3.1-7.1,3.5
		c5.7,0.4,8.7,3.5,8.7,9.4v13.9h-5.9V213c0-3.6-0.6-6.2-1.8-7.7s-3.5-2.3-7-2.3h-18.9v20.9h-5.9L392.3,223.8L392.3,223.8z
		 M398.2,176.8v20.8h18.3c4.1,0,6.7-0.8,8-2.3c1.3-1.5,1.9-4.8,1.9-9.6c0-3.7-0.6-6.1-2.1-7.2c-1.4-1.2-4-1.7-8-1.7H398.2z
		 M464.6,223.8l19-52.2h8.3l19,52.2h-6.1l-4-11.1h-26l-4.1,11.1L464.6,223.8L464.6,223.8z M476.5,207.4h22.6l-11.2-30.9L476.5,207.4
		z M540,171.6h39.5v5.2h-16.8v46.9h-5.9v-46.9H540L540,171.6L540,171.6z M612.4,171.6h5.9v23h30.5v-23h5.9v52.2h-5.9v-23.9h-30.5
		v23.9h-5.9V171.6z M690.3,207.4v-19.6c0-6.2,1.3-10.5,3.7-13c2.5-2.5,6.8-3.7,13.2-3.7h7.4c6.7,0,11.2,1.3,13.6,4
		c2.3,2.7,3.5,7.1,3.5,13.2v18.5c0,6.6-1.3,11.1-3.7,13.7c-2.5,2.6-6.7,3.9-12.7,3.9h-7.7c-6.6,0-11.1-1.3-13.4-3.7
		C691.5,218,690.3,213.6,690.3,207.4z M696.2,188.3v18.6c0,4.6,0.6,7.9,2.1,9.6c1.4,1.7,4.3,2.6,8.7,2.6h8.1c4,0,6.7-0.8,8.3-2.5
		c1.5-1.7,2.3-4.8,2.3-9.3v-18.5c0-5.2-0.8-8.5-2.2-10.1c-1.5-1.5-4.3-2.3-8.4-2.3h-7.9c-4.3,0-7.2,0.8-8.7,2.5
		C696.9,180.4,696.2,183.6,696.2,188.3L696.2,188.3z M766.6,171.6h9.7l29.4,47.6v-47.6h5.9v52.2H802l-29.4-47.4v47.4h-5.9V171.6
		L766.6,171.6z"/>
</g>
</svg>
